<svg xmlns="http://www.w3.org/2000/svg" viewBox="0 0 200 200">
  <defs>
    <linearGradient id="ak-cursor" x1="15%" y1="0%" x2="85%" y2="100%">
      <stop offset="0%" stop-color="#63B3F9" />
      <stop offset="100%" stop-color="#1A6ADF" />
    </linearGradient>
  </defs>
  <rect width="200" height="200" rx="52" fill="#12264A" />
  <path d="M32 94 L21 96 Q16 97 16 102 Q16 106 21 106 L32 104 Z" fill="#FFFFFF" />
  <path d="M168 94 L179 96 Q184 97 184 102 Q184 106 179 106 L168 104 Z" fill="#FFFFFF" />
  <path d="M55 92 L61 66 Q63 57 74 56 L126 56 Q137 57 139 66 L145 92 Z" fill="#FFFFFF" />
  <path d="M66 87 L71 70 Q72 64 79 63 L121 63 Q128 64 129 70 L134 87 Z" fill="#12264A" />
  <path d="M28 122 L28 99 Q28 90 38 88 L55 86 L145 86 L162 88 Q172 90 172 99 L172 122 Q172 133 161 133 L39 133 Q28 133 28 122 Z" fill="#FFFFFF" />
  <rect x="37" y="98" width="34" height="10" rx="5" fill="#12264A" />
  <rect x="129" y="98" width="34" height="10" rx="5" fill="#12264A" />
  <rect x="68" y="114" width="64" height="10" rx="5" fill="#12264A" />
  <g stroke="#5CC22B" stroke-width="7" stroke-linecap="round">
    <path d="M80 148 L67 144" />
    <path d="M76 161 L62 161" />
    <path d="M81 173 L70 179" />
  </g>
  <path
    d="M100 130 L100 167 L109 160 L115 174 L124 170 L118 156 L130 156 Z"
    fill="url(#ak-cursor)"
    stroke="#FFFFFF"
    stroke-width="7"
    stroke-linejoin="round"
  />
</svg>
